HIERARCHY
ROOT hip
{
  OFFSET 0 0 0
  CHANNELS 6 Xposition Yposition Zposition Zrotation Yrotation Xrotation
  JOINT abdomen
  {
    OFFSET 0 20.6881 -0.73152
    CHANNELS 3 Zrotation Xrotation Yrotation
    JOINT chest
    {
      OFFSET 0 11.7043 -0.48768
      CHANNELS 3 Zrotation Xrotation Yrotation
      JOINT neck
      {
        OFFSET 0 22.1894 -2.19456
        CHANNELS 3 Zrotation Xrotation Yrotation
        JOINT head
        {
          OFFSET -0.24384 7.07133 1.2192
          CHANNELS 3 Zrotation Xrotation Yrotation
          JOINT leftEye
          {
            OFFSET 4.14528 8.04674 8.04672
            CHANNELS 3 Zrotation Xrotation Yrotation
            End Site
            {
              OFFSET 1 0 0
            }
          }
          JOINT rightEye
          {
            OFFSET -3.6576 8.04674 8.04672
            CHANNELS 3 Zrotation Xrotation Yrotation
            End Site
            {
              OFFSET 1 0 0
            }
          }
        }
      }
      JOINT rCollar
      {
        OFFSET -2.68224 19.2634 -4.8768
        CHANNELS 3 Zrotation Xrotation Yrotation
        JOINT rShldr
        {
          OFFSET -8.77824 -1.95073 1.46304
          CHANNELS 3 Zrotation Xrotation Yrotation
          JOINT rForeArm
          {
            OFFSET -28.1742 -1.7115 0.48768
            CHANNELS 3 Zrotation Xrotation Yrotation
            JOINT rHand
            {
              OFFSET -22.5879 0.773209 7.07136
              CHANNELS 3 Zrotation Xrotation Yrotation
              JOINT rThumb1
              {
                OFFSET -1.2192 -0.487915 3.41376
                CHANNELS 3 Zrotation Xrotation Yrotation
                JOINT rThumb2
                {
                  OFFSET -3.37035 -0.52449 3.41376
                  CHANNELS 3 Zrotation Xrotation Yrotation
                  End Site
                  {
                    OFFSET -1.78271 -1.18214 1.43049
                  }
                }
              }
              JOINT rIndex1
              {
                OFFSET -7.75947 0.938293 5.60832
                CHANNELS 3 Zrotation Xrotation Yrotation
                JOINT rIndex2
                {
                  OFFSET -2.54057 -0.884171 1.56538
                  CHANNELS 3 Zrotation Xrotation Yrotation
                  End Site
                  {
                    OFFSET -1.62519 -0.234802 1.16502
                  }
                }
              }
              JOINT rMid1
              {
                OFFSET -8.24714 1.18213 3.41376
                CHANNELS 3 Zrotation Xrotation Yrotation
                JOINT rMid2
                {
                  OFFSET -3.10165 -0.590103 1.0647
                  CHANNELS 3 Zrotation Xrotation Yrotation
                  End Site
                  {
                    OFFSET -2.48547 -0.328903 0.83742
                  }
                }
              }
              JOINT rRing1
              {
                OFFSET -8.82822 0.546677 1.51678
                CHANNELS 3 Zrotation Xrotation Yrotation
                JOINT rRing2
                {
                  OFFSET -2.60934 -0.819778 -0.0198488
                  CHANNELS 3 Zrotation Xrotation Yrotation
                  End Site
                  {
                    OFFSET -2.33842 -0.294052 0.168128
                  }
                }
              }
              JOINT rPinky1
              {
                OFFSET -8.27202 -0.0477905 -0.4584
                CHANNELS 3 Zrotation Xrotation Yrotation
                JOINT rPinky2
                {
                  OFFSET -1.82734 -0.647385 -0.700984
                  CHANNELS 3 Zrotation Xrotation Yrotation
                  End Site
                  {
                    OFFSET -1.69225 -0.51767 -0.607171
                  }
                }
              }
            }
          }
        }
      }
      JOINT lCollar
      {
        OFFSET 2.68224 19.2634 -4.8768
        CHANNELS 3 Zrotation Xrotation Yrotation
        JOINT lShldr
        {
          OFFSET 8.77824 -1.95073 1.46304
          CHANNELS 3 Zrotation Xrotation Yrotation
          JOINT lForeArm
          {
            OFFSET 28.1742 -1.7115 0.48768
            CHANNELS 3 Zrotation Xrotation Yrotation
            JOINT lHand
            {
              OFFSET 22.5879 0.773209 7.07136
              CHANNELS 3 Zrotation Xrotation Yrotation
              JOINT lThumb1
              {
                OFFSET 1.2192 -0.487915 3.41376
                CHANNELS 3 Zrotation Xrotation Yrotation
                JOINT lThumb2
                {
                  OFFSET 3.37035 -0.52449 3.41376
                  CHANNELS 3 Zrotation Xrotation Yrotation
                  End Site
                  {
                    OFFSET 1.78271 -1.18214 1.43049
                  }
                }
              }
              JOINT lIndex1
              {
                OFFSET 7.75947 0.938293 5.60832
                CHANNELS 3 Zrotation Xrotation Yrotation
                JOINT lIndex2
                {
                  OFFSET 2.54057 -0.884171 1.56538
                  CHANNELS 3 Zrotation Xrotation Yrotation
                  End Site
                  {
                    OFFSET 1.62519 -0.234802 1.16502
                  }
                }
              }
              JOINT lMid1
              {
                OFFSET 8.24714 1.18213 3.41376
                CHANNELS 3 Zrotation Xrotation Yrotation
                JOINT lMid2
                {
                  OFFSET 3.10165 -0.590103 1.0647
                  CHANNELS 3 Zrotation Xrotation Yrotation
                  End Site
                  {
                    OFFSET 2.48547 -0.328903 0.83742
                  }
                }
              }
              JOINT lRing1
              {
                OFFSET 8.82822 0.546677 1.51678
                CHANNELS 3 Zrotation Xrotation Yrotation
                JOINT lRing2
                {
                  OFFSET 2.60934 -0.819778 -0.0198488
                  CHANNELS 3 Zrotation Xrotation Yrotation
                  End Site
                  {
                    OFFSET 2.33842 -0.294052 0.168128
                  }
                }
              }
              JOINT lPinky1
              {
                OFFSET 8.27202 -0.0477905 -0.4584
                CHANNELS 3 Zrotation Xrotation Yrotation
                JOINT lPinky2
                {
                  OFFSET 1.82734 -0.647385 -0.700984
                  CHANNELS 3 Zrotation Xrotation Yrotation
                  End Site
                  {
                    OFFSET 1.69225 -0.51767 -0.607171
                  }
                }
              }
            }
          }
        }
      }
    }
  }
  JOINT rButtock
  {
    OFFSET -8.77824 4.35084 1.2192
    CHANNELS 3 Zrotation Xrotation Yrotation
    JOINT rThigh
    {
      OFFSET 0 -1.70687 -2.19456
      CHANNELS 3 Zrotation Xrotation Yrotation
      JOINT rShin
      {
        OFFSET 0 -36.8199 0.73152
        CHANNELS 3 Zrotation Xrotation Yrotation
        JOINT rFoot
        {
          OFFSET 0.73152 -45.1104 -5.12064
          CHANNELS 3 Zrotation Xrotation Yrotation
          End Site
          {
            OFFSET -1.1221 -3.69964 12.103
          }
        }
      }
    }
  }
  JOINT lButtock
  {
    OFFSET 8.77824 4.35084 1.2192
    CHANNELS 3 Zrotation Xrotation Yrotation
    JOINT lThigh
    {
      OFFSET 0 -1.70687 -2.19456
      CHANNELS 3 Zrotation Xrotation Yrotation
      JOINT lShin
      {
        OFFSET 0 -36.8199 0.73152
        CHANNELS 3 Zrotation Xrotation Yrotation
        JOINT lFoot
        {
          OFFSET -0.73152 -45.1104 -5.12064
          CHANNELS 3 Zrotation Xrotation Yrotation
          End Site
          {
            OFFSET 1.1221 -3.69964 12.103
          }
        }
      }
    }
  }
}
MOTION
Frames:	4
Frame Time:	0.03333
-79.38604397444283 56.93662084576637 -15.73581370849074 6.364257335662842 17.411832809448242 -0.8856110572814941 -14.514209747314453 9.842758178710938 -14.257732391357422 5.909131050109863 -9.390755653381348 -9.605134010314941 -7.889364719390869 17.859262466430664 -17.68633270263672 13.192178726196289 -25.706235885620117 -23.66629981994629 0.9051980376243591 1.1319491863250732 -7.687427997589111 -0.9134253859519958 0.19516772031784058 -8.213882446289062 -1.0533522367477417 -0.5615857839584351 -9.045022964477539 72.51438903808594 33.30665969848633 -19.172122955322266 -19.24532127380371 -11.627001762390137 25.4825382232666 2.5207679271698 5.3557820320129395 -7.592625617980957 0.09333384782075882 -0.00747278705239296 -7.664916515350342 -1.399505615234375 0.2558748126029968 -8.119453430175781 2.200922727584839 -0.019595973193645477 -7.502060890197754 8.922633171081543 4.792788982391357 -7.763420581817627 -0.9280275106430054 0.05370551347732544 -7.608117580413818 1.7399076223373413 1.5239266157150269 -9.050291061401367 -1.005996584892273 -1.2015876770019531 -8.498991012573242 9.72053337097168 1.2914763689041138 -9.372824668884277 -1.5118426084518433 0.4355948865413666 -8.966636657714844 0.6491718292236328 -0.6985489130020142 -8.92581558227539 1.4418336153030396 0.3616678714752197 -8.270574569702148 -61.33885955810547 37.718135833740234 -34.698123931884766 16.20507049560547 -10.614899635314941 -45.9407958984375 -2.2733893394470215 11.424385070800781 -9.49642562866211 -0.21775738894939423 0.016469595953822136 -8.235665321350098 0.8077439665794373 0.6636928915977478 -8.436959266662598 -0.1674247533082962 -0.037295661866664886 -7.893615245819092 -7.268861293792725 5.551565647125244 -9.471406936645508 -0.5221142768859863 0.31729838252067566 -7.973306179046631 -3.708669424057007 2.570122480392456 -8.969193458557129 -1.175252914428711 1.1178443431854248 -7.495850563049316 -9.843994140625 1.328274130821228 -7.9528326988220215 0.5417633652687073 -0.8440252542495728 -9.136995315551758 -1.7110658884048462 -1.3466227054595947 -7.909207820892334 0.9244781732559204 1.585120677947998 -8.496153831481934 -32.1224250793457 -61.167484283447266 -34.8172492980957 -1.5646908283233643 67.74539947509766 -7.619604110717773 1.540355920791626 -4.778911590576172 -1.6116359233856201 0.1120154857635498 -0.5456388592720032 -7.993590354919434 3.3691139221191406 3.5218656063079834 -3.2206063270568848 -0.8405711054801941 35.977760314941406 -10.425008773803711 15.550604820251465 -19.146465301513672 24.41594696044922
-80.7203286858808 57.10830448074381 -16.005441615835927 6.292490005493164 16.985109329223633 -1.790173888206482 -14.466948509216309 9.511484146118164 -15.171319961547852 5.900024890899658 -9.336393356323242 -10.430766105651855 -8.024332046508789 17.808761596679688 -18.56060028076172 13.334236145019531 -25.515649795532227 -24.583101272583008 0.9027454853057861 1.096508264541626 -8.550741195678711 -0.9211539030075073 0.24622134864330292 -9.065581321716309 -1.0102397203445435 -0.5627493858337402 -9.978365898132324 72.87003326416016 33.06724548339844 -20.22381591796875 -19.14422607421875 -11.47115707397461 24.39638900756836 2.5722689628601074 5.06907320022583 -8.445454597473145 0.1558515429496765 -0.032848045229911804 -8.559893608093262 -1.3702503442764282 0.2778136134147644 -8.896714210510254 2.253699541091919 -0.04001399874687195 -8.341546058654785 8.973409652709961 4.761643886566162 -8.57756519317627 -0.9428824186325073 0.08863002061843872 -8.43657398223877 1.6941691637039185 1.4630446434020996 -9.883455276489258 -1.0083142518997192 -1.220017433166504 -9.3584623336792 9.687971115112305 1.2683459520339966 -10.235447883605957 -1.4870067834854126 0.4103982448577881 -9.87972354888916 0.5890222787857056 -0.6870826482772827 -9.756099700927734 1.4478107690811157 0.36255672574043274 -9.123239517211914 -61.70124816894531 37.56949234008789 -35.29678726196289 15.963068008422852 -10.537606239318848 -46.39529800415039 -2.266791820526123 12.157559394836426 -10.406715393066406 -0.26376378536224365 0.04504464939236641 -9.059247016906738 0.7980782389640808 0.6522156000137329 -9.309439659118652 -0.18848447501659393 0.0015888827620074153 -8.726293563842773 -7.278590202331543 5.529082775115967 -10.325118064880371 -0.5005699396133423 0.3079614043235779 -8.821808815002441 -3.7615668773651123 2.5543692111968994 -9.819621086120605 -1.1976747512817383 1.135445475578308 -8.351114273071289 -9.821535110473633 1.2652281522750854 -8.792308807373047 0.5493861436843872 -0.8183938264846802 -10.012693405151367 -1.713490605354309 -1.3234902620315552 -8.781587600708008 0.9192896485328674 1.6166530847549438 -9.339980125427246 -30.880319595336914 -60.882816314697266 -34.540550231933594 -1.3529027700424194 67.06914520263672 -8.712940216064453 1.6104718446731567 -4.80527925491333 -2.622133731842041 0.13539473712444305 -0.5585029125213623 -8.77662467956543 3.0113043785095215 3.2033112049102783 -4.150874137878418 -0.8374558687210083 35.722511291503906 -11.252523422241211 15.68206787109375 -19.10799789428711 23.500564575195312
-82.11524914872751 57.340353327605825 -16.165690873812533 6.049192905426025 17.183216094970703 1.5951905250549316 -14.068760871887207 9.212759017944336 -11.894434928894043 5.487540245056152 -8.901407241821289 -6.891330242156982 -7.829226493835449 17.666000366210938 -14.81430721282959 13.040064811706543 -25.17708969116211 -21.012189865112305 0.8430511355400085 1.1766623258590698 -5.0993123054504395 -0.8394032120704651 0.10387074202299118 -5.8574910163879395 -1.1713206768035889 -0.4655469059944153 -6.636842250823975 73.59661865234375 33.60721969604492 -17.59309196472168 -19.789072036743164 -10.519519805908203 27.021669387817383 2.4215199947357178 4.617093086242676 -5.159829139709473 0.22011451423168182 -0.05074135586619377 -5.20204496383667 -1.4869725704193115 0.36115750670433044 -5.497198581695557 2.2117702960968018 -0.004197311121970415 -4.915681838989258 8.79055404663086 4.911627292633057 -5.375228404998779 -1.0494744777679443 0.10763091593980789 -5.231431007385254 1.6626701354980469 1.5543982982635498 -6.6687421798706055 -0.9115095138549805 -1.2454224824905396 -6.152373790740967 9.842241287231445 1.3649611473083496 -6.815357685089111 -1.6503262519836426 0.29480046033859253 -6.412063121795654 0.5843413472175598 -0.7832800149917603 -6.401717185974121 1.3702248334884644 0.49730753898620605 -5.720724105834961 -60.552921295166016 37.16494369506836 -33.475181579589844 15.788260459899902 -11.428277015686035 -43.668495178222656 -2.1238579750061035 12.299113273620605 -7.110101222991943 -0.26433318853378296 0.19959931075572968 -5.864339351654053 0.7226337194442749 0.7458378076553345 -6.145512580871582 0.02814902365207672 -0.07075939327478409 -5.233959197998047 -7.379852771759033 5.533172607421875 -7.03945255279541 -0.5779705047607422 0.35787662863731384 -5.499181270599365 -3.580090045928955 2.38220477104187 -6.6197123527526855 -1.239034652709961 0.9637661576271057 -5.045978546142578 -9.865010261535645 1.170670986175537 -5.303287029266357 0.5513447523117065 -0.8007413744926453 -6.4828782081604 -1.705689549446106 -1.27484929561615 -5.243683815002441 0.887650728225708 1.5353680849075317 -6.061491012573242 -29.663339614868164 -60.482635498046875 -30.209970474243164 -1.179543137550354 66.94286346435547 -5.557430744171143 1.124541163444519 -5.156727313995361 -0.17320160567760468 0.18367311358451843 -0.4937458634376526 -5.3471999168396 3.734571933746338 1.8139410018920898 -0.8920502066612244 -0.849270761013031 37.45164108276367 -7.835073471069336 14.852437973022461 -18.93250846862793 25.929845809936523
-83.52330139730552 57.41672850290491 -16.351571910753492 5.21971321105957 16.451799392700195 3.0260775089263916 -12.525054931640625 9.804509162902832 -10.331014633178711 4.696179389953613 -8.96462631225586 -5.772642612457275 -7.250150680541992 17.37198257446289 -12.76700496673584 12.296731948852539 -25.405702590942383 -18.5460262298584 0.8783748149871826 1.181455373764038 -4.014333248138428 -0.6369591951370239 0.028803203254938126 -4.906740188598633 -1.4794195890426636 -0.4203016757965088 -5.49428653717041 73.41586303710938 34.163780212402344 -16.64093780517578 -20.10003089904785 -10.79003620147705 28.31922721862793 2.2377874851226807 4.496362209320068 -4.011043071746826 0.18606199324131012 -0.08572553843259811 -4.074357986450195 -1.6572058200836182 0.37561264634132385 -4.539318561553955 2.0609989166259766 0.004189800471067429 -3.863654136657715 8.719120979309082 5.130559921264648 -4.624942779541016 -1.1136394739151 0.2711901366710663 -4.2570013999938965 1.7033019065856934 1.5765554904937744 -5.754327774047852 -0.8985429406166077 -1.2843252420425415 -5.355213165283203 9.960719108581543 1.4834260940551758 -5.617825031280518 -1.6589797735214233 0.12672939896583557 -5.404632091522217 0.6604456305503845 -0.897606611251831 -5.328692436218262 1.2367582321166992 0.5845626592636108 -4.535172939300537 -58.949462890625 37.02543640136719 -35.257110595703125 16.046667098999023 -11.250386238098145 -43.11140060424805 -1.9997957944869995 11.90461254119873 -6.057597637176514 -0.2145659625530243 0.3424881398677826 -4.920590877532959 0.6797435283660889 0.7395613789558411 -5.226690292358398 0.17457851767539978 -0.019236408174037933 -4.306056022644043 -7.42164945602417 5.624638557434082 -5.98690128326416 -0.5881771445274353 0.47381141781806946 -4.481762886047363 -3.3781771659851074 2.3905153274536133 -5.642792701721191 -1.4164159297943115 0.8473972082138062 -4.140132904052734 -10.061328887939453 1.040929913520813 -4.273826599121094 0.528870165348053 -0.973351240158081 -5.378286838531494 -1.8035414218902588 -1.260974645614624 -4.312978744506836 0.8279775381088257 1.5616506338119507 -4.962040901184082 -27.481000900268555 -59.23759078979492 -27.279006958007812 -1.0286304950714111 66.65709686279297 -4.7689690589904785 0.19534268975257874 -6.173832893371582 -1.1322296857833862 0.19478879868984222 -0.5514352917671204 -4.429373741149902 5.354427814483643 -1.2345290184020996 -0.061347246170043945 -0.6235427856445312 41.154869079589844 -6.765907287597656 13.36750316619873 -18.335147857666016 24.82574462890625
